<svg id="레이어_1" data-name="레이어 1" xmlns="http://www.w3.org/2000/svg" viewBox="0 0 14.77 21.03"><title>bottom_call</title><path d="M184.33,452.15c-1.31-1.37-1.85-.45-1.85-.45a2,2,0,0,1-1.81.19,5,5,0,0,1-2.23-2l-.43-.8h0a5.38,5.38,0,0,1-.54-3,2.18,2.18,0,0,1,1.06-1.56s1,0,.56-1.91-2-4.66-3.61-3.55c-.8.57-2.22,1.32-2,5.1a18.71,18.71,0,0,0,2.2,6.85h0a17.93,17.93,0,0,0,4.59,5.53c3,2.07,4.34,1.15,5.21.71C187.15,456.34,185.64,453.52,184.33,452.15Z" transform="translate(-172.44 -437.78)" style="fill:#fff;fill-rule:evenodd"/><path d="M184.33,452.15c-1.31-1.37-1.85-.45-1.85-.45a2,2,0,0,1-1.81.19,5,5,0,0,1-2.23-2l-.43-.8h0a5.38,5.38,0,0,1-.54-3,2.18,2.18,0,0,1,1.06-1.56s1,0,.56-1.91-2-4.66-3.61-3.55c-.8.57-2.22,1.32-2,5.1a18.71,18.71,0,0,0,2.2,6.85h0a17.93,17.93,0,0,0,4.59,5.53c3,2.07,4.34,1.15,5.21.71C187.15,456.34,185.64,453.52,184.33,452.15Z" transform="translate(-172.44 -437.78)" style="fill:none;stroke:#999;stroke-linecap:round;stroke-linejoin:round;stroke-width:2px"/></svg>